<?xml version="1.0" encoding="UTF-8"?>
<svg version="1.1" xmlns="http://www.w3.org/2000/svg" width="500" height="500">
<path d="M0 0 C165 0 330 0 500 0 C500 165 500 330 500 500 C335 500 170 500 0 500 C0 335 0 170 0 0 Z " fill="#40E5E6" transform="translate(0,0)"/>
<path d="M0 0 C165 0 330 0 500 0 C500 165 500 330 500 500 C335 500 170 500 0 500 C0 335 0 170 0 0 Z M138.5625 55.9375 C133.2538814 66.34239245 133.60368393 76.51880574 133.70703125 87.9140625 C133.71263558 89.73822682 133.71690172 91.56239569 133.71989441 93.38656616 C133.73127735 98.15741733 133.7606872 102.92798881 133.79400635 107.69873047 C133.82484943 112.57906309 133.83843001 117.45944148 133.85351562 122.33984375 C133.88556395 131.89335117 133.93667986 141.44665221 134 151 C133.39945801 151.27980713 132.79891602 151.55961426 132.18017578 151.84790039 C128.97833019 153.53989472 126.49815001 155.97911684 123.875 158.4375 C123.01285889 159.24320435 123.01285889 159.24320435 122.13330078 160.06518555 C93.69043179 186.94018187 73.57734866 223.87571461 69 263 C68.88785156 263.94359375 68.77570313 264.8871875 68.66015625 265.859375 C66.64908134 286.68639736 66.71969823 308.90303435 73 329 C73.50660156 330.8871875 73.50660156 330.8871875 74.0234375 332.8125 C79.57251231 353.34719832 89.13274812 373.02803655 102 390 C102.88558594 391.17369141 102.88558594 391.17369141 103.7890625 392.37109375 C112.02397388 402.96125756 121.33412523 413.77750292 132 422 C132.66 422 133.32 422 134 422 C133.896875 423.19625 133.79375 424.3925 133.6875 425.625 C133.73468362 435.59647077 137.86916606 445.09847002 144.8125 452.16015625 C150.52275586 456.96288931 156.57337414 460.12107249 164.10869217 460.12863445 C164.92335394 460.1318589 165.73801571 460.13508335 166.57736421 460.1384055 C167.46684684 460.1368569 168.35632946 460.1353083 169.27276611 460.13371277 C170.22200699 460.13597833 171.17124786 460.13824388 172.14925361 460.14057809 C175.33812146 460.14692105 178.52694684 460.14608853 181.71582031 460.14526367 C183.99896805 460.14825501 186.28211528 460.15165748 188.56526184 460.15544128 C194.77404451 460.16428887 200.98281339 460.16661974 207.19160175 460.16725707 C212.37295927 460.16820585 217.55431357 460.17188387 222.73566985 460.17542917 C234.26207081 460.1831113 245.7884639 460.18609753 257.31486705 460.18542381 C258.3522769 460.18536388 258.3522769 460.18536388 259.41064453 460.18530273 C260.10309728 460.18526185 260.79555004 460.18522097 261.5089862 460.18517885 C272.72599849 460.18477258 283.94297717 460.19433718 295.15997973 460.2084411 C306.68175513 460.22281369 318.20350981 460.22952774 329.72529483 460.22884732 C336.19213536 460.2285923 342.65893789 460.23144616 349.12577057 460.24202538 C355.20946287 460.25170564 361.29308083 460.25178596 367.37677574 460.24450874 C369.60842434 460.24346276 371.84007756 460.24582658 374.07171822 460.2518692 C377.12099929 460.25959022 380.17002374 460.25494341 383.21929932 460.24723816 C384.54013893 460.2549535 384.54013893 460.2549535 385.88766217 460.26282471 C395.48773379 460.20931707 403.27170218 457.85791986 411 452 C413.39077734 449.52588402 415.15311748 446.88935124 417 444 C417.44025841 443.38870283 417.88051682 442.77740565 418.3341164 442.14758432 C422.93676606 435.12413711 422.69997974 428.21555129 422.62818909 420.05899048 C422.63323951 418.54525233 422.64047216 417.03152017 422.64968723 415.51780164 C422.66856669 411.37479239 422.65640031 407.23237571 422.6389643 403.08938169 C422.62556996 398.61481877 422.6410349 394.14034138 422.65278625 389.66578674 C422.6711527 380.90615529 422.66265678 372.14674711 422.64469803 363.38712265 C422.63066313 356.2659431 422.62678115 349.1448241 422.6301403 342.02363205 C422.63061775 341.00946984 422.63109519 339.99530762 422.6315871 338.95041322 C422.63261345 336.89003105 422.63366881 334.8296489 422.63475286 332.76926677 C422.64331814 314.55479209 422.62665148 296.34042505 422.59692383 278.12597656 C422.5680954 260.46219357 422.5609991 242.79856569 422.57641602 225.13476562 C422.59318883 205.89116484 422.59720068 186.64763769 422.57970566 167.40403497 C422.57786131 165.35068982 422.57602659 163.29734465 422.57420158 161.24399948 C422.57328949 160.23377374 422.5723774 159.22354799 422.57143768 158.18270934 C422.56583835 151.07340923 422.56913391 143.96414512 422.57574654 136.85484695 C422.58348972 128.18603123 422.57669192 119.51736804 422.5515715 110.848583 C422.53909834 106.42794995 422.53290329 102.00755408 422.54411316 97.58691216 C422.5541929 93.53532675 422.54561701 89.48421319 422.52253198 85.43268494 C422.5173952 83.9718068 422.51889366 82.51088598 422.52792663 81.05002673 C422.60002645 68.32499791 420.62588215 58.58808705 411.64453125 49.234375 C405.30457332 43.87771926 397.34077658 39.88744518 388.93092251 39.86577892 C388.12507762 39.86132108 387.31923274 39.85686324 386.48896831 39.85227031 C385.16948675 39.85254685 385.16948675 39.85254685 383.823349 39.85282898 C382.88439193 39.84915229 381.94543486 39.8454756 380.97802454 39.8416875 C377.82380447 39.83065244 374.66961735 39.82680709 371.51538086 39.82299805 C369.25680436 39.8167332 366.99822888 39.81008638 364.73965454 39.80308533 C357.31472491 39.78204293 349.88979508 39.77168195 342.46484375 39.76171875 C339.90815279 39.75767109 337.35146193 39.75355417 334.79477119 39.74936867 C324.15832608 39.73249897 313.52188438 39.71786498 302.88542843 39.71061993 C300.1264998 39.70871016 297.36757118 39.70678981 294.60864258 39.70483398 C293.58011569 39.70410837 293.58011569 39.70410837 292.53081048 39.7033681 C281.4321851 39.69507424 270.33366773 39.66974781 259.23508947 39.63725331 C247.8296854 39.60413393 236.42436182 39.58649913 225.01890475 39.58297569 C218.61954031 39.58062657 212.22034658 39.57168391 205.82102776 39.54651451 C199.79718354 39.52320505 193.77362207 39.51901234 187.74974442 39.52927589 C185.54353583 39.52977068 183.33731319 39.52346726 181.13114738 39.50971985 C162.76438598 39.40171039 150.87688638 41.09708565 138.5625 55.9375 Z " fill="#FEFEFE" transform="translate(0,0)"/>
<path d="M0 0 C1.41484379 -0.00807831 1.41484379 -0.00807831 2.85827029 -0.01631981 C5.99708977 -0.03054832 9.13548447 -0.02350822 12.27432251 -0.01637268 C14.53363889 -0.02207893 16.79295238 -0.02904417 19.05226135 -0.03717041 C25.17421426 -0.0550892 31.29602373 -0.05393572 37.41799498 -0.04822803 C42.53471105 -0.04513418 47.65139966 -0.05123086 52.76811182 -0.05726677 C65.53207537 -0.0721084 78.29593767 -0.0685021 91.05989499 -0.05640347 C102.12588252 -0.04647419 113.19170276 -0.05940932 124.25766449 -0.08333766 C135.64063945 -0.10776461 147.02351461 -0.11692855 158.40652335 -0.11068493 C164.78902641 -0.1073183 171.1713913 -0.10971104 177.55387497 -0.12693596 C183.55729334 -0.1424312 189.560393 -0.13842056 195.5637989 -0.11963081 C197.76193876 -0.11595205 199.96010236 -0.11903251 202.15822029 -0.1295166 C216.4653966 -0.19252453 229.15269837 -0.0960043 240.21817017 10.25486755 C249.66912239 20.00062012 250.81877983 30.40313284 250.75019836 43.56246948 C250.75696674 45.07722091 250.76546228 46.59196542 250.77552158 48.10669857 C250.79792557 52.24315427 250.79560806 56.37927329 250.78895223 60.51577055 C250.78606739 64.98692165 250.80615469 69.45798062 250.82310486 73.92909241 C250.85240663 82.67803746 250.85975601 91.4268671 250.85852935 100.17585617 C250.85769585 107.28887358 250.86356972 114.40185461 250.87415504 121.51486397 C250.90681329 143.89500265 250.91582319 166.27502923 250.90706531 188.65518827 C250.90108229 206.29688182 250.93149018 223.93829756 250.97868802 241.57992183 C251.02681382 259.7102698 251.04886107 277.84048404 251.04337722 295.97089726 C251.04080301 306.14344997 251.04874702 316.31573646 251.08444786 326.48823357 C251.11459846 335.14715749 251.12030254 343.80567654 251.09463885 352.46462207 C251.08223542 356.87951573 251.08095257 361.29364878 251.11034775 365.70847893 C251.13700491 369.75601648 251.13090271 373.80217929 251.0995178 377.84967078 C251.09381669 379.30782636 251.09974489 380.76608776 251.11897381 382.2241277 C251.2746293 394.88997441 247.27447499 402.81613058 239.22207642 412.38768005 C236.92520142 414.1181488 236.92520142 414.1181488 234.47207642 415.57518005 C233.67285767 416.06373474 232.87363892 416.55228943 232.05020142 417.0556488 C225.28768484 420.24075675 218.81218846 420.67999411 211.46829224 420.64837646 C210.03930438 420.65411479 210.03930438 420.65411479 208.58144808 420.65996903 C205.40495997 420.67024726 202.22865437 420.66631675 199.05215454 420.66233826 C196.76841566 420.66668753 194.48467825 420.6718714 192.20094299 420.67782593 C186.00891181 420.69120242 179.81694172 420.69179619 173.62489891 420.68926263 C168.45327848 420.68819222 163.28167037 420.69307796 158.11005259 420.69786805 C145.21275161 420.70959183 132.3154896 420.70874076 119.41818696 420.70231124 C108.22727479 420.6971407 97.03644962 420.70840318 85.84555465 420.72740946 C74.3417252 420.74679681 62.83794719 420.75475113 51.33410025 420.75128621 C44.88071752 420.7494732 38.42741453 420.75211166 31.9740448 420.76600075 C25.90667991 420.77857097 19.83948935 420.77664245 13.77212715 420.76358986 C11.5469259 420.76122297 9.32171241 420.76396276 7.09652519 420.77221298 C4.05610138 420.78267214 1.01626346 420.77458614 -2.0241394 420.76190186 C-2.90197067 420.76927614 -3.77980193 420.77665043 -4.68423414 420.78424817 C-13.87972531 420.70369187 -20.98098086 417.57825652 -27.77792358 411.38768005 C-34.36068201 404.60774223 -37.99811638 395.60146639 -38.02792358 386.13768005 C-37.94542358 384.90018005 -37.86292358 383.66268005 -37.77792358 382.38768005 C-38.37016724 382.11544617 -38.96241089 381.84321228 -39.57260132 381.56272888 C-43.16430599 379.64898211 -45.89008726 376.84837712 -48.84042358 374.07518005 C-49.50364624 373.45288513 -50.1668689 372.83059021 -50.85018921 372.18943787 C-74.07640705 350.04949926 -89.57016079 322.01772384 -98.21835327 291.3368988 C-98.68505711 289.71117304 -99.18452434 288.09489815 -99.69198608 286.48143005 C-106.2832547 264.91000548 -104.91242844 240.44036668 -101.77792358 218.38768005 C-101.66835327 217.39768005 -101.55878296 216.40768005 -101.44589233 215.38768005 C-96.27326521 175.37087239 -70.99734015 138.45396059 -41.22323608 112.41893005 C-39.77792358 111.38768005 -39.77792358 111.38768005 -37.77792358 111.38768005 C-37.78680603 110.38702515 -37.79568848 109.38637024 -37.80484009 108.35539246 C-37.88625662 98.88199792 -37.94604675 89.40867524 -37.98517227 79.935009 C-38.005964 75.06556764 -38.03412618 70.19641083 -38.0796814 65.32713318 C-38.12344148 60.61977122 -38.14712382 55.91268135 -38.15743256 51.20513153 C-38.16477018 49.41754631 -38.17909748 47.62997441 -38.20084381 45.84250641 C-38.34249245 33.70653546 -38.4742526 21.18181364 -29.40292358 11.88768005 C-20.76350452 3.09348313 -12.15958359 -0.08447634 0 0 Z M-23.77792358 20.38768005 C-27.23412207 25.18176182 -27.90320319 29.15735142 -27.90097141 34.98675156 C-27.90296246 36.1337861 -27.90495351 37.28082065 -27.90700489 38.46261382 C-27.90409205 39.72330255 -27.90117921 40.98399127 -27.8981781 42.28288269 C-27.8986141 43.63514484 -27.89948953 44.9874069 -27.90076727 46.33966851 C-27.90300662 50.05895653 -27.89899856 53.77821583 -27.89398921 57.49750018 C-27.88967689 61.50701062 -27.89113169 65.51651939 -27.89189148 69.52603149 C-27.89241622 76.47391393 -27.88927464 83.42178698 -27.88365364 90.36966705 C-27.87553187 100.41517599 -27.87292272 110.46068038 -27.87166565 120.50619224 C-27.8694762 136.80376757 -27.862819 153.1013379 -27.85336304 169.39891052 C-27.84418616 185.23191808 -27.83711814 201.06492428 -27.83285522 216.89793396 C-27.83258723 217.88358546 -27.83231923 218.86923696 -27.83204311 219.88475668 C-27.82996373 227.59302391 -27.82800679 235.30129117 -27.82608855 243.00955844 C-27.81665227 280.80227023 -27.79653457 318.59496951 -27.77792358 356.38768005 C60.66207642 356.38768005 149.10207642 356.38768005 240.22207642 356.38768005 C240.28033924 298.8193236 240.28033924 298.8193236 240.31973267 241.2509613 C240.32364843 233.49135835 240.3276894 225.73175548 240.3319397 217.97215271 C240.33246719 216.99960883 240.33299469 216.02706495 240.33353817 215.02505004 C240.3422375 199.32274053 240.35800555 183.62044565 240.37638201 167.91814482 C240.39508306 151.80413028 240.40619358 135.6901234 240.41025341 119.57609844 C240.41299803 109.63237876 240.42166775 99.68870045 240.43790935 89.74499351 C240.44847875 82.92682738 240.45167713 76.10868265 240.44907917 69.29050893 C240.44779782 65.35642181 240.44976638 61.42240701 240.46048737 57.48833275 C240.47023663 53.88448552 240.47070047 50.28075908 240.46387421 46.67690623 C240.4626322 44.76012773 240.47124296 42.84335061 240.48023903 40.92659283 C240.45680192 28.87533 240.45680192 28.87533 234.65957642 18.63768005 C234.03953735 17.9209613 233.41949829 17.20424255 232.78067017 16.46580505 C225.37153526 10.44800388 218.03389048 9.82481468 208.74942017 9.99705505 C207.00393639 10.00554474 207.00393639 10.00554474 205.22319031 10.01420593 C201.53488676 10.03645739 197.84758251 10.08663499 194.15957642 10.13768005 C191.64722073 10.15775947 189.1348497 10.1760077 186.62246704 10.19236755 C180.48866702 10.23628541 174.35544314 10.3030852 168.22207642 10.38768005 C168.16366577 11.19519714 168.10525513 12.00271423 168.04507446 12.83470154 C167.92192871 14.43680481 167.92192871 14.43680481 167.79629517 16.0712738 C167.71725952 17.12629089 167.63822388 18.18130798 167.55679321 19.26829529 C166.33809834 30.6258915 161.30380231 41.43756139 152.54238892 48.8525238 C143.74392367 54.67373061 136.38337468 55.01051577 126.07754517 54.98924255 C124.50106868 54.9970316 122.92459633 55.00570402 121.34812927 55.01521301 C118.05231087 55.03008445 114.7569211 55.02959514 111.46109009 55.01902771 C107.26468123 55.00745757 103.07004353 55.04127282 98.87392712 55.08771706 C95.61962352 55.1173754 92.36573725 55.11891052 89.1113224 55.1126976 C87.56574312 55.11371532 86.02013774 55.12402532 84.47469139 55.14432144 C73.77728391 55.26756475 65.31708159 53.95876165 57.09211731 46.44081116 C49.42132821 38.51467117 45.21343223 27.90163285 44.59707642 17.01268005 C44.48492798 15.14482849 44.48492798 15.14482849 44.37051392 13.23924255 C44.32152954 12.29822693 44.27254517 11.3572113 44.22207642 10.38768005 C36.80230306 10.31145247 29.38263116 10.25900545 21.96255493 10.22288513 C19.43973008 10.20782301 16.91693131 10.18736928 14.39419556 10.16136169 C10.76253818 10.12486622 7.13122783 10.10792745 3.49942017 10.0947113 C2.37623886 10.07922745 1.25305756 10.06374359 0.09584045 10.04779053 C-10.35664075 10.04555734 -16.44354343 12.88773827 -23.77792358 20.38768005 Z " fill="#385CCB" transform="translate(171.77792358398438,39.61231994628906)"/>
<path d="M0 0 C2.26156398 1.68147478 4.24423987 3.45171919 6.25390625 5.42578125 C7.42179687 6.49892578 7.42179687 6.49892578 8.61328125 7.59375 C12.94740063 11.70833065 16.4211532 15.73329983 19.28125 20.9921875 C19.60222656 21.46527344 19.92320312 21.93835938 20.25390625 22.42578125 C20.91390625 22.42578125 21.57390625 22.42578125 22.25390625 22.42578125 C23.60245642 20.67457348 23.60245642 20.67457348 24.94140625 18.42578125 C32.76247904 6.40205971 42.21338269 -1.71099777 56.25390625 -5.57421875 C71.49588946 -8.70184868 87.16989646 -6.91295248 100.40234375 1.4140625 C113.43040817 10.60509425 122.15895228 22.09220031 125.80688477 37.80810547 C126.24336239 40.36403836 126.36826875 42.69959314 126.3515625 45.2890625 C126.34833984 46.17529297 126.34511719 47.06152344 126.34179688 47.97460938 C126.33341797 48.88662109 126.32503906 49.79863281 126.31640625 50.73828125 C126.31189453 51.66962891 126.30738281 52.60097656 126.30273438 53.56054688 C126.29099859 55.84902498 126.27457988 58.13736933 126.25390625 60.42578125 C125.59390625 60.42578125 124.93390625 60.42578125 124.25390625 60.42578125 C124.21652344 61.10382813 124.17914063 61.781875 124.140625 62.48046875 C123.25824052 74.97226478 118.95989589 84.62921399 113.22216797 95.5703125 C112.4040234 97.13811349 111.60945976 98.7181862 110.8203125 100.30078125 C96.98367942 127.23499876 74.2020368 151.76085378 52.77734375 172.86328125 C50.37205938 175.25162934 48.09848377 177.7044546 45.8828125 180.26953125 C41.8108644 184.97903528 37.54009489 189.47191166 33.19140625 193.92578125 C32.41474609 194.74820313 31.63808594 195.570625 30.83789062 196.41796875 C30.07669922 197.19398438 29.31550781 197.97 28.53125 198.76953125 C27.85312256 199.47271484 27.17499512 200.17589844 26.47631836 200.90039062 C24.25390625 202.42578125 24.25390625 202.42578125 21.43164062 203.06054688 C16.68803685 202.11299234 14.40701383 199.34574233 11.1328125 195.92578125 C10.13833351 194.92212524 10.13833351 194.92212524 9.12376404 193.89819336 C7.00687523 191.75438868 4.91195177 189.59043186 2.81640625 187.42578125 C1.41084177 185.99868237 0.00395354 184.57288598 -1.40429688 183.1484375 C-7.15006652 177.31013516 -12.8070018 171.45463793 -18.14027405 165.23339844 C-19.73153017 163.44217499 -21.39357024 161.77249266 -23.12109375 160.11328125 C-26.88362579 156.41793728 -30.12167439 152.35704082 -33.421875 148.25 C-35.6386699 145.55631477 -37.94198942 142.98790539 -40.30859375 140.42578125 C-44.89731334 135.38296961 -48.81304097 129.98522563 -52.74609375 124.42578125 C-54.0789976 122.63379505 -55.41233241 120.84212932 -56.74609375 119.05078125 C-66.95701717 104.93098871 -74.85475242 90.02075489 -80.18359375 73.42578125 C-80.55411865 72.27891846 -80.55411865 72.27891846 -80.93212891 71.10888672 C-85.73385436 55.36894706 -85.59231607 37.61870552 -78.12109375 22.80078125 C-70.39972595 9.52309418 -58.88148401 -0.78802213 -44.078125 -4.9609375 C-43.30855469 -5.16332031 -42.53898437 -5.36570313 -41.74609375 -5.57421875 C-41.15570313 -5.75855469 -40.5653125 -5.94289062 -39.95703125 -6.1328125 C-26.80734918 -8.75810238 -11.65337229 -6.68038269 0 0 Z " fill="#3EE4E6" transform="translate(256.74609375,148.57421875)"/>
<path d="M0 0 C1.06079773 0.00007553 2.12159546 0.00015106 3.21453857 0.00022888 C4.92253632 0.00797081 4.92253632 0.00797081 6.66503906 0.01586914 C7.83576965 0.01728409 9.00650024 0.01869904 10.21270752 0.02015686 C13.95205235 0.0257545 17.69133732 0.03830659 21.43066406 0.05102539 C23.96581945 0.05604069 26.50097577 0.06060355 29.03613281 0.06469727 C35.25099699 0.07572315 41.46582625 0.09245895 47.68066406 0.11352539 C47.72747314 1.05091553 47.77428223 1.98830566 47.82250977 2.95410156 C47.93212036 4.81772339 47.93212036 4.81772339 48.04394531 6.71899414 C48.11137939 7.94513428 48.17881348 9.17127441 48.24829102 10.43457031 C49.4223083 20.42399237 55.00772531 31.17583626 62.55566406 37.92602539 C71.64102275 44.28577647 79.01313685 44.73740606 89.82519531 44.71508789 C91.4016718 44.72287694 92.97814415 44.73154936 94.55461121 44.74105835 C97.85042961 44.75592978 101.14581938 44.75544048 104.44165039 44.74487305 C108.63805925 44.73330291 112.83269695 44.76711815 117.02881336 44.81356239 C120.28311696 44.84322074 123.53700323 44.84475586 126.79141808 44.83854294 C128.33699736 44.83956066 129.88260274 44.84987065 131.42804909 44.87016678 C142.12574589 44.99341342 150.58472134 43.68406649 158.81062317 36.16714478 C166.98338567 27.72003449 170.32514944 17.29116762 171.22753906 5.85571289 C171.31358398 4.77918457 171.39962891 3.70265625 171.48828125 2.59350586 C171.55176758 1.7751123 171.61525391 0.95671875 171.68066406 0.11352539 C179.04538371 -0.01388691 186.40981616 -0.10108215 193.77539062 -0.16113281 C196.27777732 -0.18618254 198.78009154 -0.22023203 201.28222656 -0.26367188 C204.89178413 -0.32474122 208.50036925 -0.35278135 212.11035156 -0.37475586 C213.21804901 -0.40056229 214.32574646 -0.42636871 215.4670105 -0.45295715 C223.86913786 -0.45594968 230.51370262 1.36083061 236.85812378 7.07450867 C243.01167144 13.32589115 243.93322478 20.30053473 243.9211731 28.83312988 C243.92373637 29.93369146 243.92373637 29.93369146 243.92635143 31.05648661 C243.92962068 33.49161757 243.91868543 35.9264671 243.90771484 38.36157227 C243.90715017 40.11642449 243.90746838 41.8712772 243.90859985 43.62612915 C243.90917219 48.37347963 243.89743717 53.12072843 243.88345194 57.86805534 C243.87092471 62.83549353 243.86977251 67.8029342 243.86740112 72.77038574 C243.86119221 82.16953945 243.84478935 91.56864646 243.82470214 100.96777964 C243.80232482 111.67150345 243.7913451 122.37522952 243.78131127 133.07897091 C243.76042261 155.0905151 243.72525808 177.1020173 243.68066406 199.11352539 C243.02066406 198.78352539 242.36066406 198.45352539 241.68066406 198.11352539 C240.96972656 195.81274414 240.96972656 195.81274414 240.30566406 192.80102539 C235.9137894 174.43696123 228.30783157 157.35288174 217.94238281 141.59399414 C214.73215358 136.70993293 211.78811688 131.85281014 209.86816406 126.30102539 C204.39673646 112.35839134 193.28212067 102.07151215 179.68066406 96.11352539 C178.06560231 95.6213161 176.44017268 95.16169914 174.80566406 94.73852539 C170.59798951 93.60594319 167.40815027 91.84227127 163.74316406 89.48852539 C142.38179434 75.84934097 119.41585902 69.50166569 94.68066406 65.11352539 C93.72546875 64.93394287 92.77027344 64.75436035 91.78613281 64.56933594 C63.15948856 60.36761072 30.1864108 64.86519452 4.48339844 78.20141602 C2.79223705 79.05707405 1.04938925 79.80832763 -0.69433594 80.55102539 C-7.21695773 83.3625003 -13.41770318 86.54757468 -19.50170898 90.21191406 C-20.40350388 90.7545842 -21.30529877 91.29725433 -22.23442078 91.85636902 C-22.92244278 92.27123062 -23.61046478 92.68609222 -24.31933594 93.11352539 C-24.38900985 83.60332644 -24.44223521 74.09321608 -24.47477245 64.58281708 C-24.4903929 60.16620331 -24.51156457 55.74976485 -24.5456543 51.33325195 C-24.5783775 47.06682118 -24.59621617 42.80055848 -24.60396767 38.53401184 C-24.609488 36.91060238 -24.62026769 35.28720157 -24.63652611 33.66386414 C-24.80838387 15.78488103 -24.80838387 15.78488103 -19.67089844 8.90649414 C-13.42710495 3.10061377 -8.67312062 -0.02065029 0 0 Z " fill="#FCFDFE" transform="translate(168.3193359375,49.886474609375)"/>
<path d="M0 0 C0.33 0 0.66 0 1 0 C1 119.46 1 238.92 1 362 C0.67 362 0.34 362 0 362 C0 359.03 0 356.06 0 353 C-1.32 352.34 -2.64 351.68 -4 351 C-6.48420648 349.04155925 -8.75824182 346.85340968 -11.0625 344.6875 C-11.72572266 344.06520508 -12.38894531 343.44291016 -13.07226562 342.80175781 C-36.29848346 320.66181921 -51.7922372 292.63004378 -60.44042969 261.94921875 C-60.90713353 260.32349299 -61.40660076 258.7072181 -61.9140625 257.09375 C-68.50533112 235.52232543 -67.13450485 211.05268663 -64 189 C-63.89042969 188.01 -63.78085938 187.02 -63.66796875 186 C-58.49534162 145.98319234 -33.21941657 109.06628054 -3.4453125 83.03125 C-2 82 -2 82 0 82 C0 54.94 0 27.88 0 0 Z " fill="#52EEEA" transform="translate(134,69)"/>
<path d="M0 0 C88.44 0 176.88 0 268 0 C268 27.76470588 268 27.76470588 261.875 37.3125 C255.45602646 43.31284483 247.67468128 44.59677945 239.15756226 44.49447632 C238.21952904 44.49930515 237.28149583 44.50413398 236.31503737 44.50910914 C233.19980537 44.52030062 230.08540884 44.50312134 226.97021484 44.48583984 C224.72558878 44.48798766 222.4809638 44.49186825 220.23634338 44.49734497 C214.1600356 44.50701226 208.08402308 44.49176811 202.00775099 44.47143888 C195.64137087 44.45383049 189.27499936 44.45739368 182.90859985 44.4581604 C172.22091145 44.45628934 161.53334764 44.43905929 150.84570312 44.41162109 C139.86163267 44.38343672 128.8776618 44.36928029 117.89355469 44.37060547 C117.21668316 44.37068538 116.53981163 44.37076529 115.84242885 44.37084763 C115.16669753 44.37092834 114.49096622 44.37100905 113.7947582 44.3710922 C100.63429433 44.37254351 87.47387113 44.35855907 74.31341982 44.34019899 C70.52562941 44.33593996 66.73784675 44.33451714 62.95005417 44.33372116 C56.99594264 44.3317097 51.04193532 44.31947886 45.0878582 44.29938889 C42.90458883 44.29355592 40.72130747 44.2910847 38.53803062 44.29224396 C35.55473375 44.29322845 32.57172684 44.28188407 29.58847046 44.26742554 C28.29711561 44.27207134 28.29711561 44.27207134 26.97967279 44.276811 C20.40371753 44.22429115 14.53930566 43.62515562 8.875 40 C-3.86197262 26.70924596 0 20.40641111 0 0 Z " fill="#43E6E7" transform="translate(144,406)"/>
<path d="M0 0 C2.26156398 1.68147478 4.24423987 3.45171919 6.25390625 5.42578125 C7.42179687 6.49892578 7.42179687 6.49892578 8.61328125 7.59375 C12.94740063 11.70833065 16.4211532 15.73329983 19.28125 20.9921875 C19.60222656 21.46527344 19.92320312 21.93835938 20.25390625 22.42578125 C20.91390625 22.42578125 21.57390625 22.42578125 22.25390625 22.42578125 C23.60245642 20.67457348 23.60245642 20.67457348 24.94140625 18.42578125 C32.76247904 6.40205971 42.21338269 -1.71099777 56.25390625 -5.57421875 C71.49588946 -8.70184868 87.16989646 -6.91295248 100.40234375 1.4140625 C113.43040817 10.60509425 122.15895228 22.09220031 125.80688477 37.80810547 C126.24336239 40.36403836 126.36826875 42.69959314 126.3515625 45.2890625 C126.34833984 46.17529297 126.34511719 47.06152344 126.34179688 47.97460938 C126.33341797 48.88662109 126.32503906 49.79863281 126.31640625 50.73828125 C126.31189453 51.66962891 126.30738281 52.60097656 126.30273438 53.56054688 C126.29099859 55.84902498 126.27457988 58.13736933 126.25390625 60.42578125 C125.59390625 60.42578125 124.93390625 60.42578125 124.25390625 60.42578125 C124.21652344 61.10382813 124.17914063 61.781875 124.140625 62.48046875 C123.25824052 74.97226478 118.95989589 84.62921399 113.22216797 95.5703125 C112.4040234 97.13811349 111.60945976 98.7181862 110.8203125 100.30078125 C96.98367942 127.23499876 74.2020368 151.76085378 52.77734375 172.86328125 C50.37205938 175.25162934 48.09848377 177.7044546 45.8828125 180.26953125 C41.8108644 184.97903528 37.54009489 189.47191166 33.19140625 193.92578125 C32.41474609 194.74820313 31.63808594 195.570625 30.83789062 196.41796875 C30.07669922 197.19398438 29.31550781 197.97 28.53125 198.76953125 C27.85312256 199.47271484 27.17499512 200.17589844 26.47631836 200.90039062 C24.25390625 202.42578125 24.25390625 202.42578125 21.43164062 203.06054688 C16.68803685 202.11299234 14.40701383 199.34574233 11.1328125 195.92578125 C10.13833351 194.92212524 10.13833351 194.92212524 9.12376404 193.89819336 C7.00687523 191.75438868 4.91195177 189.59043186 2.81640625 187.42578125 C1.41084177 185.99868237 0.00395354 184.57288598 -1.40429688 183.1484375 C-7.15006652 177.31013516 -12.8070018 171.45463793 -18.14027405 165.23339844 C-19.73153017 163.44217499 -21.39357024 161.77249266 -23.12109375 160.11328125 C-26.88362579 156.41793728 -30.12167439 152.35704082 -33.421875 148.25 C-35.6386699 145.55631477 -37.94198942 142.98790539 -40.30859375 140.42578125 C-44.89731334 135.38296961 -48.81304097 129.98522563 -52.74609375 124.42578125 C-54.0789976 122.63379505 -55.41233241 120.84212932 -56.74609375 119.05078125 C-66.95701717 104.93098871 -74.85475242 90.02075489 -80.18359375 73.42578125 C-80.55411865 72.27891846 -80.55411865 72.27891846 -80.93212891 71.10888672 C-85.73385436 55.36894706 -85.59231607 37.61870552 -78.12109375 22.80078125 C-70.39972595 9.52309418 -58.88148401 -0.78802213 -44.078125 -4.9609375 C-43.30855469 -5.16332031 -42.53898437 -5.36570313 -41.74609375 -5.57421875 C-41.15570313 -5.75855469 -40.5653125 -5.94289062 -39.95703125 -6.1328125 C-26.80734918 -8.75810238 -11.65337229 -6.68038269 0 0 Z M-64.796875 20.625 C-74.09429915 31.71421896 -74.86816745 43.51997356 -73.74609375 57.42578125 C-69.69284587 87.87538724 -49.86030679 113.64089587 -30.74609375 136.42578125 C-29.96419678 137.36429932 -29.96419678 137.36429932 -29.16650391 138.32177734 C-23.45151883 145.16936529 -17.63793732 151.76519842 -11.1953125 157.94921875 C-9.25020032 159.91604669 -7.46258822 161.89767027 -5.66796875 163.99609375 C-0.82930199 169.57952225 4.44825121 174.72755543 9.69140625 179.92578125 C10.71963605 180.94898264 11.74763251 181.97241858 12.77539062 182.99609375 C15.26554963 185.47536124 17.75883458 187.95145663 20.25390625 190.42578125 C23.99452437 188.86642492 26.36856261 186.55523447 29.2109375 183.69921875 C29.67698898 183.23270905 30.14304047 182.76619934 30.62321472 182.28555298 C31.6080397 181.29771385 32.59044006 180.3074523 33.57055664 179.31494141 C35.04598668 177.82145078 36.52906365 176.33592375 38.01367188 174.8515625 C42.71372595 170.1337651 47.29269575 165.35246492 51.62866211 160.29394531 C54.52213304 156.96799675 57.59097208 153.8066739 60.62890625 150.61328125 C66.46194609 144.42488957 72.00645793 138.1231824 77.25390625 131.42578125 C78.37857251 130.01926432 79.50360334 128.61303886 80.62890625 127.20703125 C87.47645077 118.59636297 93.87115278 110.04266716 99.25390625 100.42578125 C99.62354492 99.77254883 99.99318359 99.11931641 100.37402344 98.44628906 C105.66616629 89.0356113 110.08138099 79.77692248 113.25390625 69.42578125 C113.57230469 68.45640625 113.89070312 67.48703125 114.21875 66.48828125 C118.26077623 52.77892039 117.59404025 38.75560296 111.00390625 26.0078125 C104.62651743 15.48149743 94.21397252 7.36275709 82.37695312 3.87231445 C72.13639632 1.71845309 58.21532413 1.70754317 49.25390625 7.42578125 C48.50496094 7.88855469 47.75601563 8.35132813 46.984375 8.828125 C37.28741647 15.58460888 31.24192342 25.99577838 25.56640625 36.125 C24.25390625 38.42578125 24.25390625 38.42578125 23.25390625 39.42578125 C21.5877351 39.46641957 19.9200253 39.46850225 18.25390625 39.42578125 C17.73183594 38.41 17.20976562 37.39421875 16.671875 36.34765625 C10.3535197 24.39712165 2.88073917 12.47392811 -9.74609375 6.42578125 C-11.44765625 5.52859375 -11.44765625 5.52859375 -13.18359375 4.61328125 C-32.6494361 -2.17085391 -51.71863286 6.60014224 -64.796875 20.625 Z " fill="#325BCA" transform="translate(256.74609375,148.57421875)"/>
<path d="M0 0 C34.98 0 69.96 0 106 0 C104.83996265 12.76041087 102.77709165 23.27613191 92.875 32 C88.48075084 35.05686898 85.07881809 35.12702406 79.78198242 35.14526367 C78.52355026 35.15164352 77.2651181 35.15802338 75.96855164 35.16459656 C74.5975244 35.1661256 73.22649665 35.16723936 71.85546875 35.16796875 C70.44305894 35.17118424 69.03064947 35.17454853 67.61824036 35.17805481 C64.65849028 35.18403788 61.69876937 35.18589561 58.73901367 35.18530273 C54.95971886 35.18520128 51.18061262 35.19883982 47.40136242 35.21607494 C44.48357802 35.22723439 41.5658386 35.22922072 38.64803505 35.22869301 C37.25547957 35.22986771 35.86292274 35.23426066 34.47038841 35.24202538 C16.47166828 35.33297285 16.47166828 35.33297285 9.7734375 29.07421875 C1.71315827 19.64688775 0.91185267 12.76593738 0 0 Z " fill="#FBFCFE" transform="translate(225,50)"/>
<path d="M0 0 C0.99316223 0.00565979 1.98632446 0.01131958 3.00958252 0.01715088 C6.17875559 0.03952474 9.3467942 0.08972394 12.515625 0.140625 C14.66534824 0.16068865 16.81508923 0.17893966 18.96484375 0.1953125 C24.23215729 0.23939261 29.49881009 0.30631467 34.765625 0.390625 C34.88298377 4.36953852 34.95326154 8.3479996 35.015625 12.328125 C35.04914063 13.44509766 35.08265625 14.56207031 35.1171875 15.71289062 C35.22130576 24.58897224 33.3869148 30.30449678 28.640625 37.703125 C19.17117403 46.55500308 6.53242151 44.90966538 -5.5546875 44.78125 C-7.62547253 44.77377969 -9.69626467 44.7680905 -11.76705933 44.76409912 C-17.18900437 44.74890502 -22.6105135 44.70967726 -28.0322876 44.6652832 C-33.5761526 44.62419569 -39.12008877 44.60605942 -44.6640625 44.5859375 C-55.52102373 44.54317664 -66.37766296 44.47500136 -77.234375 44.390625 C-74.60291365 42.63631743 -72.10140776 41.44268564 -69.19628906 40.23486328 C-49.59171098 32.05919625 -25.42808867 19.87808359 -12.68457031 2.24633789 C-8.77175859 -0.71712185 -4.77052292 -0.10220056 0 0 Z " fill="#FCFDFE" transform="translate(377.234375,405.609375)"/>
<path d="M0 0 C5.46212069 -0.36414138 5.46212069 -0.36414138 7.57592773 1.06689453 C9.61349868 3.83279316 10.21857979 6.8259737 10.97265625 10.1171875 C11.14123642 10.81135773 11.30981659 11.50552795 11.48350525 12.22073364 C12.01993541 14.43653909 12.54190378 16.65542612 13.0625 18.875 C13.58905494 21.08677173 14.11867589 23.29774357 14.65220642 25.50784302 C14.98295137 26.88131534 15.30932156 28.25585091 15.63063049 29.63156128 C16.49028666 33.23759646 17.58169966 36.57988887 19 40 C19.68226329 42.72629094 20.3276847 45.44545275 20.9375 48.1875 C22.38741782 54.54351924 24.01839381 60.78607443 26 67 C26.30292969 65.76507813 26.60585938 64.53015625 26.91796875 63.2578125 C29.18975859 54.05248341 31.52946566 44.87747806 34.11938477 35.75610352 C35.24707695 31.77005866 36.31868807 27.77758654 37.3203125 23.7578125 C37.53880859 22.890354 37.75730469 22.02289551 37.98242188 21.12915039 C38.40130194 19.45601735 38.81187497 17.78077592 39.21289062 16.10327148 C39.40302734 15.34860596 39.59316406 14.59394043 39.7890625 13.81640625 C39.95100098 13.15068604 40.11293945 12.48496582 40.27978516 11.79907227 C41.15480533 9.61330153 42.18103724 8.48083845 44 7 C46.51171875 6.5859375 46.51171875 6.5859375 49 7 C50.51953125 8.4765625 50.51953125 8.4765625 51.8125 10.625 C52.31007813 11.43710938 52.80765625 12.24921875 53.3203125 13.0859375 C53.87460937 14.04757813 54.42890625 15.00921875 55 16 C55.32967773 16.56750977 55.65935547 17.13501953 55.99902344 17.71972656 C57.74217342 20.72387866 59.4659408 23.73799146 61.16796875 26.765625 C61.77253906 27.83296875 62.37710938 28.9003125 63 30 C63.41894531 30.95132813 63.83789062 31.90265625 64.26953125 32.8828125 C65.92229401 35.37643669 65.92229401 35.37643669 69.46875 35.6015625 C70.81214647 35.63335887 72.15631504 35.6403564 73.5 35.625 C80.46382521 35.625 80.46382521 35.625 82.94921875 37.36328125 C84.43860534 39.6831808 84.34577375 41.30296476 84 44 C80.09186408 47.90813592 73.81887407 47.2219676 68.54443359 47.43359375 C64.22862215 47.28679264 61.19206512 47.05707276 57.88720703 44.12646484 C53.95669027 38.93260599 51.29893578 33.06932639 49 27 C47.22704733 29.659429 46.55115056 31.14445281 45.78125 34.1328125 C45.46607422 35.34324219 45.46607422 35.34324219 45.14453125 36.578125 C44.82548828 37.83882812 44.82548828 37.83882812 44.5 39.125 C44.28730469 39.94226563 44.07460938 40.75953125 43.85546875 41.6015625 C42.62502423 46.37236579 41.49950869 51.15444066 40.48388672 55.97558594 C39.98137346 58.07792698 39.33661503 60.08474639 38.625 62.125 C37.21897164 66.17975856 36.08722477 70.28820054 35 74.4375 C32.62492527 83.45669982 32.62492527 83.45669982 31.375 87.8125 C31.15585937 88.58207031 30.93671875 89.35164063 30.7109375 90.14453125 C30 92 30 92 28 94 C24.70285207 93.67028521 23.3773161 93.3773161 21 91 C20.28564453 89.11499023 20.28564453 89.11499023 19.6328125 86.80859375 C19.38901855 85.95475098 19.14522461 85.1009082 18.89404297 84.22119141 C18.64025879 83.30257324 18.38647461 82.38395508 18.125 81.4375 C17.85961426 80.49310059 17.59422852 79.54870117 17.32080078 78.57568359 C15.33428654 71.42110017 13.58496263 64.22906414 11.9296875 56.9921875 C9.44580419 46.19018335 6.34876631 35.56286393 3 25 C2.74605469 26.134375 2.49210937 27.26875 2.23046875 28.4375 C1.88310278 29.95839966 1.53543007 31.47922929 1.1875 33 C1.02185547 33.74378906 0.85621094 34.48757812 0.68554688 35.25390625 C-0.49180021 40.36314833 -1.9457111 45.16891639 -4 50 C-8.35713472 52.17856736 -14.21407337 51.22967759 -19 51.25 C-20.21429688 51.270625 -21.42859375 51.29125 -22.6796875 51.3125 C-23.83726562 51.31765625 -24.99484375 51.3228125 -26.1875 51.328125 C-27.78658203 51.34214355 -27.78658203 51.34214355 -29.41796875 51.35644531 C-30.27003906 51.23881836 -31.12210938 51.12119141 -32 51 C-34 48 -34 48 -33.75 45.4375 C-33 43 -33 43 -31 41 C-29.02880859 40.68115234 -29.02880859 40.68115234 -26.6484375 40.5859375 C-25.79765625 40.54726562 -24.946875 40.50859375 -24.0703125 40.46875 C-22.73613281 40.42234375 -22.73613281 40.42234375 -21.375 40.375 C-20.02921875 40.31699219 -20.02921875 40.31699219 -18.65625 40.2578125 C-16.4377073 40.16340643 -14.21917597 40.07783252 -12 40 C-11.74307373 39.00145996 -11.48614746 38.00291992 -11.22143555 36.97412109 C-10.26096394 33.24870189 -9.29158447 29.52564789 -8.31958008 25.80322266 C-7.90115254 24.19577564 -7.4851016 22.58770794 -7.0715332 20.97900391 C-6.47459724 18.65878351 -5.86898007 16.34097402 -5.26171875 14.0234375 C-5.08033859 13.31069672 -4.89895844 12.59795593 -4.71208191 11.86361694 C-3.58673361 7.60978212 -2.10125616 3.86419687 0 0 Z " fill="#325CCA" transform="translate(253,200)"/>
<path d="M0 0 C0.33 0 0.66 0 1 0 C1 24.75 1 49.5 1 75 C-10.88 75 -22.76 75 -35 75 C-29 66 -29 66 -25.8125 61.6875 C-12.87330058 43.0070664 -4.53663891 22.26008832 0 0 Z " fill="#F5F9FC" transform="translate(411,321)"/>
<path d="M0 0 C0.7361554 0.00090637 1.47231079 0.00181274 2.23077393 0.00274658 C3.00653275 -0.00397064 3.78229156 -0.01068787 4.58155823 -0.01760864 C7.15357821 -0.03665288 9.72533817 -0.04051597 12.29742432 -0.04266357 C14.08099985 -0.0490868 15.8645743 -0.0558148 17.64814758 -0.06283569 C21.38990727 -0.07482437 25.13157451 -0.07851486 28.87335205 -0.07733154 C33.6733773 -0.07712821 38.47281144 -0.10443802 43.2726965 -0.13887596 C46.95724726 -0.16108822 50.64165446 -0.16517084 54.32626534 -0.16411209 C56.09614666 -0.16647633 57.86603146 -0.1753459 59.63584709 -0.19077682 C62.10931954 -0.21032385 64.58150043 -0.20464431 67.05499268 -0.19256592 C67.78912384 -0.20380493 68.523255 -0.21504395 69.27963257 -0.22662354 C72.54936356 -0.18594874 74.26245383 -0.1224929 76.70149231 2.15567017 C78.01193418 4.93992438 77.64233792 6.41110542 76.70758057 9.29327393 C74.72645667 11.27439783 70.80908091 10.45041988 68.09844971 10.45440674 C66.90336037 10.4618541 66.90336037 10.4618541 65.68412781 10.4694519 C63.03698884 10.48410966 60.38990977 10.49088112 57.74273682 10.49639893 C55.910497 10.50214694 54.07825721 10.50790471 52.24601746 10.51367188 C48.39995034 10.52419184 44.5539042 10.53002813 40.70782471 10.5335083 C35.7699121 10.53899837 30.83227451 10.56303308 25.89444828 10.59148026 C22.10873087 10.61006594 18.32308028 10.61531003 14.53732109 10.61684418 C12.71637911 10.61987993 10.89543855 10.62793929 9.07454109 10.64102936 C6.53151393 10.65800704 3.98916615 10.65623032 1.44610596 10.64971924 C0.68810699 10.65893402 -0.06989197 10.6681488 -0.8508606 10.67764282 C-2.94560242 10.6607666 -2.94560242 10.6607666 -6.29241943 10.29327393 C-8.29241943 7.29327393 -8.29241943 7.29327393 -8.04241943 4.73077393 C-6.6133723 0.08637074 -4.49810399 0.05713484 0 0 Z " fill="#325DCB" transform="translate(243.29241943359375,422.70672607421875)"/>
<path d="M0 0 C0.91265625 0.51046875 0.91265625 0.51046875 1.84375 1.03125 C13.22559233 7.32473929 24.76238006 13.52856194 37 18 C37 18.33 37 18.66 37 19 C34.16640156 19.05449228 31.33387515 19.09390733 28.5 19.125 C27.70851562 19.14175781 26.91703125 19.15851563 26.1015625 19.17578125 C18.91839774 19.23465965 11.94708104 18.73225246 6.38671875 13.62890625 C3.06781782 9.73036629 0 5.19328729 0 0 Z " fill="#F6FAFD" transform="translate(145,431)"/>
<path d="M0 0 C0.66 0.33 1.32 0.66 2 1 C0.9375 2.5 0.9375 2.5 -1 4 C-4.6875 4.1875 -4.6875 4.1875 -8 4 C-5.31143836 2.20762558 -3.0466145 1.01553817 0 0 Z " fill="#D2F8F8" transform="translate(308,446)"/>
</svg>
