<?xml version="1.0" standalone="no"?>
<!DOCTYPE svg PUBLIC "-//W3C//DTD SVG 20010904//EN"
 "http://www.w3.org/TR/2001/REC-SVG-20010904/DTD/svg10.dtd">
<svg version="1.0" xmlns="http://www.w3.org/2000/svg"
 width="500.000000pt" height="500.000000pt" viewBox="0 0 500.000000 500.000000"
 preserveAspectRatio="xMidYMid meet">

<g transform="translate(0.000000,500.000000) scale(0.100000,-0.100000)"
fill="#000000" stroke="none">
<path d="M1313 4186 c-27 -24 -28 -27 -31 -142 -6 -192 15 -224 148 -224 l60
0 -2 -227 -3 -228 -195 -5 c-183 -5 -198 -7 -250 -31 -70 -33 -146 -109 -179
-179 -25 -53 -26 -63 -29 -267 l-3 -213 -88 0 c-49 0 -102 -5 -119 -11 -62
-21 -62 -22 -62 -409 0 -222 4 -358 10 -371 20 -36 63 -49 165 -49 l95 0 0
-371 c0 -416 3 -443 67 -526 49 -64 67 -79 143 -116 l65 -32 1395 0 1395 0 65
31 c70 34 118 76 157 138 50 78 53 104 53 504 l0 372 95 0 c102 0 145 13 165
49 6 13 10 148 10 366 0 382 -2 393 -61 414 -18 6 -71 11 -120 11 l-88 0 -3
213 c-3 204 -4 214 -29 267 -33 70 -109 146 -179 179 -52 25 -64 26 -252 29
l-198 3 0 228 0 229 75 4 c66 3 78 7 102 31 26 25 28 33 31 132 5 127 -2 170
-33 201 -24 24 -28 24 -204 24 -176 0 -181 -1 -208 -24 l-28 -24 0 -141 c0
-140 0 -141 28 -168 24 -24 36 -28 102 -31 l75 -4 -2 -227 -3 -226 -947 -3
-948 -2 0 229 0 229 75 4 c66 3 78 7 102 31 26 25 28 33 31 132 5 127 -2 170
-33 201 -24 24 -28 24 -204 24 -176 0 -181 -1 -208 -24z m375 -32 c21 -14 22
-23 22 -134 0 -94 -3 -122 -16 -134 -13 -13 -44 -16 -179 -16 -152 0 -165 1
-175 19 -5 11 -10 71 -10 135 0 91 3 118 16 130 23 23 309 23 342 0z m1960 0
c21 -14 22 -23 22 -134 0 -94 -3 -122 -16 -134 -13 -13 -44 -16 -179 -16 -152
0 -165 1 -175 19 -5 11 -10 70 -10 132 0 155 -7 149 184 149 121 0 156 -3 174
-16z m-1458 -1264 c19 -19 20 -33 20 -503 0 -421 -2 -485 -16 -505 -15 -22
-17 -22 -289 -22 -235 0 -276 2 -289 16 -14 14 -16 73 -16 506 0 443 2 493 17
510 15 17 37 18 285 18 255 0 269 -1 288 -20z m1270 0 c19 -19 20 -33 20 -503
0 -421 -2 -485 -16 -505 -15 -22 -17 -22 -286 -22 -239 0 -274 2 -290 17 -17
15 -18 44 -18 509 l0 493 22 15 c19 14 64 16 285 16 250 0 264 -1 283 -20z
m-2640 -645 l0 -355 -88 0 c-55 0 -92 4 -100 12 -9 9 -12 100 -12 348 0 185 3
340 7 343 3 4 48 7 100 7 l93 0 0 -355z m3554 339 c3 -9 6 -163 6 -343 0 -241
-3 -330 -12 -339 -8 -8 -45 -12 -100 -12 l-88 0 0 355 0 355 94 0 c76 0 95 -3
100 -16z m-2144 -1151 c185 -51 273 -50 482 7 180 49 188 48 188 -27 0 -118
-131 -245 -296 -287 -78 -20 -213 -21 -287 -1 -172 45 -297 168 -297 293 0 27
3 52 7 56 10 10 52 1 203 -41z"/>
</g>
</svg>
