<?xml version="1.0" standalone="no"?>
<!DOCTYPE svg PUBLIC "-//W3C//DTD SVG 20010904//EN"
 "http://www.w3.org/TR/2001/REC-SVG-20010904/DTD/svg10.dtd">
<svg version="1.0" xmlns="http://www.w3.org/2000/svg"
 width="500.000000pt" height="500.000000pt" viewBox="0 0 500.000000 500.000000"
 preserveAspectRatio="xMidYMid meet">

<g transform="translate(0.000000,500.000000) scale(0.100000,-0.100000)"
fill="#000000" stroke="none">
<path d="M1169 3867 c-71 -48 -107 -144 -75 -205 18 -34 71 -76 85 -68 5 4 11
1 13 -6 3 -7 12 -9 22 -5 16 6 16 9 2 22 -8 8 -19 15 -24 15 -14 0 -50 43 -62
74 -14 39 -5 77 31 122 16 20 29 34 29 31 0 -2 16 -1 35 3 23 5 37 4 42 -3 4
-6 9 -3 14 9 7 18 8 17 8 -3 1 -13 10 -37 21 -55 11 -18 20 -43 20 -56 0 -24
25 -41 40 -26 12 12 1 55 -13 47 -6 -3 -7 -1 -3 5 11 18 -29 85 -62 105 -41
23 -82 21 -123 -6z"/>
<path d="M1538 3877 c-7 -7 -21 -16 -31 -20 -10 -4 -17 -12 -16 -19 1 -7 1
-20 0 -28 -1 -13 -2 -13 -11 0 -7 12 -12 7 -25 -22 -20 -48 -19 -103 2 -138
20 -35 89 -76 96 -58 4 10 6 10 6 1 1 -19 21 -16 21 2 0 9 -11 20 -24 25 -13
5 -36 21 -51 37 -23 24 -26 34 -22 77 4 41 10 55 41 83 37 34 72 41 107 23 19
-11 72 -103 67 -117 -2 -4 5 -9 15 -11 20 -4 21 7 6 59 -15 48 -67 112 -85
105 -8 -3 -14 -1 -14 4 0 15 -67 12 -82 -3z m-38 -227 c0 -5 -5 -10 -11 -10
-5 0 -7 5 -4 10 3 6 8 10 11 10 2 0 4 -4 4 -10z"/>
<path d="M1893 3878 c-15 -7 -23 -20 -23 -35 0 -27 20 -22 21 5 0 9 3 12 5 7
2 -6 21 -9 42 -7 48 5 84 -28 102 -93 10 -34 17 -45 32 -45 17 0 19 5 13 28
-28 119 -111 179 -192 140z"/>
<path d="M2245 3851 c-63 -38 -102 -115 -90 -177 11 -59 109 -134 138 -105 6
6 -5 18 -32 35 -79 50 -89 125 -26 192 62 65 138 34 165 -67 8 -30 16 -39 28
-37 22 5 19 34 -9 94 -31 65 -102 107 -112 67 -4 -17 -5 -17 -6 0 -1 22 -18
22 -56 -2z m-78 -168 c-3 -10 -5 -4 -5 12 0 17 2 24 5 18 2 -7 2 -21 0 -30z"/>
<path d="M2612 3860 c-12 -5 -27 -20 -32 -32 -5 -13 -9 -17 -9 -10 -2 24 -21
1 -21 -24 0 -14 -6 -24 -15 -24 -19 0 -30 -63 -19 -109 14 -57 134 -135 134
-87 0 8 -18 25 -40 37 -26 15 -44 34 -52 55 -6 18 -15 31 -20 28 -4 -3 -8 2
-8 10 0 9 4 16 9 16 5 0 14 13 21 29 12 29 90 108 90 91 0 -5 6 -7 14 -4 24 9
75 -45 89 -94 9 -28 21 -48 31 -50 20 -4 20 12 0 71 -29 85 -100 125 -172 97z"/>
<path d="M2947 3826 c-66 -45 -95 -141 -62 -206 17 -33 60 -66 98 -75 37 -10
37 19 0 40 -58 31 -73 51 -73 97 0 60 36 112 92 130 l43 15 32 -39 c30 -36 32
-37 36 -16 2 13 4 -1 4 -30 0 -57 15 -84 34 -65 18 18 -17 107 -56 142 -42 37
-99 40 -148 7z"/>
<path d="M3299 3827 c-66 -44 -97 -137 -67 -202 11 -24 13 -25 19 -8 6 14 8
12 8 -11 1 -21 5 -27 16 -22 9 3 15 0 15 -8 0 -20 50 -40 64 -25 8 8 6 14 -9
23 -11 6 -34 25 -52 43 -26 24 -33 39 -33 68 0 70 71 145 124 131 39 -11 73
-51 81 -95 4 -22 12 -44 18 -48 6 -4 8 0 4 10 -3 9 -2 19 3 22 6 4 10 -4 10
-16 0 -12 3 -19 6 -16 14 13 -21 103 -54 139 -29 33 -40 38 -77 38 -27 0 -54
-8 -76 -23z"/>
<path d="M3653 3830 c-34 -20 -70 -67 -60 -77 3 -3 0 -12 -8 -20 -25 -24 -19
-97 10 -131 33 -40 93 -68 109 -52 8 9 6 15 -9 24 -11 6 -35 26 -53 44 -32 30
-34 35 -28 80 3 26 6 55 6 66 1 10 4 16 7 12 3 -3 19 4 34 15 60 42 126 17
148 -56 17 -58 28 -72 42 -58 19 19 -16 107 -57 143 -37 32 -59 38 -67 18 -4
-10 -6 -10 -6 0 -1 18 -31 15 -68 -8z"/>
<path d="M1836 3832 c-4 -7 -4 -21 -1 -32 3 -11 2 -28 -4 -37 -9 -15 -10 -13
-11 12 0 22 -3 26 -9 15 -16 -28 -22 -87 -12 -114 13 -32 72 -87 89 -81 6 2
12 0 12 -5 0 -14 27 -13 36 1 7 12 -15 31 -31 26 -5 -2 -22 12 -37 31 -30 37
-37 96 -18 132 11 21 -2 71 -14 52z m-9 -144 c-3 -8 -6 -5 -6 6 -1 11 2 17 5
13 3 -3 4 -12 1 -19z"/>
<path d="M1140 3211 c0 -9 52 -51 64 -51 16 0 3 30 -19 44 -27 18 -45 21 -45
7z"/>
<path d="M1700 3203 c0 -10 14 -27 30 -36 37 -22 37 -28 3 -49 -38 -22 -76
-64 -71 -78 2 -6 30 9 62 35 32 25 62 45 66 45 4 0 27 -21 51 -47 40 -44 69
-62 69 -44 0 4 -20 30 -45 57 -40 43 -58 78 -37 72 15 -5 72 25 72 38 0 8 -5
14 -11 14 -14 0 -83 -41 -87 -52 -2 -4 -26 9 -53 28 -42 31 -49 33 -49 17z"/>
<path d="M2240 3210 c0 -5 18 -22 40 -36 37 -25 51 -44 32 -44 -16 0 -92 -72
-92 -86 0 -19 20 -8 75 41 22 19 45 35 51 35 7 0 32 -22 57 -50 42 -47 67 -62
67 -41 0 8 -81 105 -105 124 -6 5 -3 7 8 3 22 -7 87 23 87 41 0 7 -5 13 -11
13 -20 0 -108 -55 -113 -70 -3 -8 -4 -4 -3 10 1 18 -3 25 -15 24 -10 -1 -15 2
-13 7 3 4 -8 15 -24 24 -35 18 -41 18 -41 5z"/>
<path d="M2800 3210 c0 -5 18 -22 40 -36 22 -15 40 -28 40 -30 0 -2 -9 -13
-20 -24 -11 -11 -20 -17 -20 -13 0 4 -13 -6 -30 -22 -42 -40 -40 -65 3 -33 17
13 47 35 65 49 l34 24 48 -52 c47 -51 70 -65 70 -43 0 6 -20 33 -45 59 -25 26
-45 56 -45 66 0 11 -5 15 -16 11 -9 -3 -34 7 -59 24 -45 31 -65 37 -65 20z"/>
<path d="M3360 3210 c0 -5 18 -22 40 -36 37 -24 51 -44 33 -44 -17 0 -96 -77
-92 -88 5 -15 74 32 74 51 0 7 5 12 10 12 29 2 53 18 57 40 3 13 1 22 -4 19
-4 -3 -29 8 -54 25 -47 32 -64 38 -64 21z"/>
<path d="M1292 3184 c-34 -21 -46 -23 -57 -14 -12 10 -15 9 -15 -8 0 -11 -7
-25 -15 -32 -8 -7 -15 -20 -16 -29 0 -11 -2 -12 -6 -3 -6 16 -33 -3 -33 -25 0
-8 -5 -11 -10 -8 -10 6 -27 -22 -18 -30 7 -7 88 58 88 70 0 5 11 11 25 11 19
2 36 -11 68 -47 40 -46 67 -62 67 -38 0 5 -4 7 -10 4 -5 -3 -10 1 -10 9 0 9
-16 33 -35 55 -31 34 -48 70 -27 57 11 -7 72 31 72 44 0 17 -22 11 -68 -16z"/>
<path d="M2970 3192 c-13 -10 -21 -24 -18 -32 3 -10 8 -9 21 4 9 9 19 16 22
16 15 -3 28 8 21 18 -10 16 -20 15 -46 -6z"/>
<path d="M3543 3203 c-7 -2 -13 -14 -13 -26 1 -21 1 -21 15 -3 7 10 18 15 24
11 6 -3 11 1 11 9 0 16 -13 19 -37 9z"/>
<path d="M3500 3165 c0 -8 5 -15 10 -15 6 0 10 7 10 15 0 8 -4 15 -10 15 -5 0
-10 -7 -10 -15z"/>
<path d="M3497 3116 c-6 -16 16 -40 26 -29 4 3 7 0 7 -8 1 -27 60 -80 60 -53
0 15 -22 44 -31 39 -5 -4 -9 0 -9 8 0 7 -11 24 -24 36 -19 18 -24 19 -29 7z"/>
<path d="M1000 2721 c0 -5 17 -21 38 -37 20 -15 39 -29 41 -31 3 -2 -6 -11
-19 -20 -48 -33 -90 -75 -84 -84 7 -12 30 1 75 43 20 18 40 34 45 35 5 1 33
-21 62 -49 43 -43 52 -49 52 -32 0 12 -16 36 -35 55 -40 39 -44 55 -15 64 11
3 20 11 20 16 0 5 3 8 8 8 20 -3 32 2 32 16 0 20 -26 19 -48 -2 -10 -10 -25
-19 -33 -21 -8 -2 -16 -8 -17 -13 -2 -5 -25 5 -50 23 -49 35 -72 44 -72 29z"/>
<path d="M1540 2721 c0 -6 20 -24 45 -42 25 -18 45 -36 45 -41 0 -5 -4 -6 -10
-3 -13 8 -59 -26 -60 -43 0 -7 -4 -11 -8 -8 -5 3 -16 -4 -25 -14 -11 -14 -13
-21 -5 -26 6 -4 26 9 45 29 18 20 33 34 33 32 0 -3 12 2 26 12 25 16 27 16 36
0 14 -26 28 -10 21 23 -5 26 -2 30 16 30 11 0 21 5 21 10 0 6 3 9 8 9 20 -3
32 2 32 16 0 21 -17 19 -66 -10 -50 -29 -56 -29 -96 8 -30 27 -58 36 -58 18z"/>
<path d="M2100 2721 c0 -5 7 -14 15 -21 13 -10 15 -9 15 9 0 12 -6 21 -15 21
-8 0 -15 -4 -15 -9z"/>
<path d="M2660 2724 c0 -7 33 -37 64 -60 11 -7 18 -15 15 -17 -46 -32 -99 -82
-99 -93 0 -21 5 -18 68 31 l57 45 52 -52 c30 -30 53 -46 53 -38 0 13 2 13 10
0 5 -8 10 -11 10 -7 0 5 -20 33 -45 61 -25 29 -45 55 -45 58 0 3 18 13 40 23
22 10 40 24 40 32 0 20 -30 16 -31 -4 0 -11 -3 -13 -6 -5 -4 9 -13 7 -39 -8
l-33 -21 -45 30 c-43 30 -66 38 -66 25z"/>
<path d="M3220 2721 c0 -12 60 -55 60 -44 0 4 5 0 11 -10 9 -15 7 -22 -10 -33
-12 -9 -21 -23 -21 -32 0 -12 -2 -14 -8 -4 -6 9 -14 6 -31 -12 -43 -46 -16
-47 44 -2 l60 45 50 -50 c48 -46 82 -64 72 -36 -2 6 -12 11 -22 9 -13 -3 -16
1 -13 16 4 14 -4 29 -23 48 -16 15 -29 31 -29 34 0 4 18 15 40 25 22 10 40 24
40 31 0 17 -33 10 -74 -15 -28 -18 -37 -19 -59 -8 -15 6 -27 15 -27 20 0 4 -7
7 -15 7 -8 0 -15 5 -15 10 0 6 -7 10 -15 10 -8 0 -15 -4 -15 -9z"/>
<path d="M2268 2704 c-16 -8 -28 -19 -28 -25 0 -6 -5 -7 -10 -4 -6 3 -13 -1
-16 -9 -8 -22 -22 -20 -20 2 1 11 -5 16 -16 14 -11 -2 -18 3 -18 13 0 8 -4 15
-10 15 -18 0 -10 -29 12 -44 l22 -16 -23 -17 c-58 -40 -92 -76 -82 -86 13 -13
51 19 51 42 0 11 3 13 8 4 6 -9 16 -5 36 14 l28 26 52 -52 c46 -45 76 -63 76
-45 0 4 -20 31 -45 60 -25 28 -45 54 -45 57 0 2 18 12 40 22 22 10 40 24 40
32 0 17 -18 16 -52 -3z"/>
<path d="M1700 2598 c0 -26 30 -60 55 -64 22 -3 18 7 -20 50 -34 38 -35 38
-35 14z"/>
<path d="M930 2234 c0 -17 28 -37 44 -31 9 3 16 -2 19 -15 3 -11 10 -17 16
-13 6 3 11 3 11 -1 0 -10 -49 -54 -61 -54 -5 0 -9 -9 -9 -20 0 -20 3 -19 43 9
l44 30 48 -49 c43 -43 65 -54 65 -32 0 12 -51 67 -62 67 -6 0 -13 10 -14 22
-3 15 3 24 16 28 11 4 20 14 21 23 0 10 3 12 5 5 7 -16 34 -5 34 13 0 19 -3
18 -61 -11 l-50 -26 -44 31 c-28 19 -45 26 -45 18 0 -9 -3 -9 -10 2 -5 8 -10
10 -10 4z"/>
<path d="M2030 2230 c0 -5 18 -22 40 -36 45 -30 48 -39 20 -54 -11 -6 -20 -21
-20 -33 0 -17 -2 -19 -10 -7 -7 12 -12 12 -29 -4 -19 -18 -29 -46 -15 -46 10
0 114 84 114 93 0 4 23 -16 50 -44 46 -47 50 -49 50 -27 0 14 -13 36 -30 53
-16 16 -30 32 -30 36 0 3 14 12 30 19 17 7 30 17 30 22 0 5 5 6 10 3 6 -3 10
1 10 10 0 12 -5 15 -16 11 -9 -3 -18 -6 -20 -6 -2 0 -4 -6 -4 -14 0 -9 -7 -12
-19 -9 -11 3 -28 -4 -40 -16 -14 -14 -21 -17 -21 -7 0 7 -18 25 -40 40 -42 27
-60 32 -60 16z"/>
<path d="M1497 2216 c-3 -8 0 -17 7 -19 10 -4 12 1 9 14 -6 23 -9 24 -16 5z"/>
<path d="M1670 2220 c0 -5 -8 -10 -18 -10 -10 0 -27 -7 -40 -15 -25 -18 -52
-16 -69 5 -11 13 -12 13 -13 -1 0 -9 7 -22 15 -29 18 -15 20 -31 3 -27 -6 1
-14 -7 -16 -17 -4 -19 -3 -19 22 -3 14 10 26 14 26 10 0 -5 5 -1 10 7 8 12 10
11 10 -7 0 -28 17 -39 23 -16 3 12 5 9 6 -8 1 -26 38 -69 59 -69 20 0 14 13
-33 67 -25 28 -45 53 -45 56 0 2 18 12 40 22 36 16 55 45 30 45 -5 0 -10 -4
-10 -10z"/>
<path d="M1477 2100 c-27 -21 -36 -50 -17 -50 6 0 13 7 16 15 4 8 12 15 19 15
19 0 29 20 18 31 -6 6 -20 2 -36 -11z"/>
<path d="M928 2094 c-5 -4 -8 -16 -8 -28 0 -14 3 -17 11 -9 6 6 9 19 7 28 -1
9 -6 13 -10 9z"/>
<path d="M2240 2056 c0 -9 5 -16 10 -16 6 0 10 4 10 9 0 6 -4 13 -10 16 -5 3
-10 -1 -10 -9z"/>
</g>
</svg>
