<?xml version="1.0" standalone="no"?>
<!DOCTYPE svg PUBLIC "-//W3C//DTD SVG 20010904//EN"
 "http://www.w3.org/TR/2001/REC-SVG-20010904/DTD/svg10.dtd">
<svg version="1.0" xmlns="http://www.w3.org/2000/svg"
 width="500.000000pt" height="500.000000pt" viewBox="0 0 500.000000 500.000000"
 preserveAspectRatio="xMidYMid meet">

<g transform="translate(0.000000,500.000000) scale(0.100000,-0.100000)"
fill="#000000" stroke="none">
<path d="M2151 3912 c-38 -20 -71 -73 -71 -111 0 -14 -14 -38 -35 -58 -41 -40
-46 -82 -16 -142 l20 -38 -29 -22 c-46 -34 -63 -76 -56 -137 4 -37 2 -60 -9
-80 -19 -36 -19 -58 0 -94 9 -18 26 -31 44 -35 16 -3 50 -24 74 -46 25 -21 51
-39 59 -39 41 0 182 -46 246 -81 83 -44 83 -44 36 60 -37 83 -108 175 -229
300 l-110 114 74 -54 c41 -29 117 -93 168 -142 51 -49 93 -88 93 -86 0 2 -11
46 -25 97 -30 110 -111 332 -166 451 -22 46 -38 86 -36 87 9 9 188 -346 242
-481 7 -18 9 -16 18 15 37 132 132 368 143 357 2 -2 -7 -36 -21 -76 -13 -40
-33 -117 -44 -170 -33 -164 -33 -155 -1 -180 16 -11 39 -21 51 -21 17 0 20 4
16 23 -26 107 -30 146 -18 161 16 18 101 22 118 5 7 -7 12 5 17 43 4 29 16 68
27 86 24 42 24 42 -5 42 -21 0 -25 7 -35 58 -12 62 -56 127 -97 142 -13 5 -36
5 -54 0 -27 -8 -37 -5 -65 16 -38 29 -89 40 -125 26 -18 -7 -32 -4 -55 9 -38
24 -101 24 -144 1z"/>
<path d="M1270 3402 c-26 -26 -40 -50 -45 -80 -4 -27 -17 -53 -36 -71 -36 -36
-39 -90 -8 -140 20 -34 20 -35 3 -47 -60 -41 -82 -91 -70 -158 4 -21 1 -43 -9
-62 -19 -37 -19 -67 0 -103 19 -37 43 -47 47 -19 2 12 11 26 20 32 14 9 30 -3
96 -67 44 -42 88 -77 98 -77 11 0 37 -3 59 -7 39 -6 39 -5 23 13 -22 26 -51
142 -44 178 6 28 -2 38 -81 120 -130 132 9 34 160 -113 83 -81 99 -89 41 -20
-34 41 -36 46 -30 96 7 57 -14 128 -87 303 -19 47 -43 103 -52 125 -32 77 5
19 78 -124 59 -113 76 -139 81 -123 12 36 72 80 120 87 43 7 45 9 66 61 31 75
43 78 18 4 -11 -34 -18 -63 -15 -66 3 -3 20 4 38 15 19 12 48 21 65 21 17 0
33 2 36 5 3 3 1 27 -4 53 -10 45 -44 103 -78 129 -18 15 -69 17 -89 4 -10 -7
-25 -1 -49 17 -30 23 -46 27 -101 27 -36 1 -76 6 -88 13 -12 7 -45 12 -74 12
-46 0 -55 -4 -89 -38z"/>
<path d="M3400 3209 c-56 -32 -80 -76 -87 -158 -6 -69 -7 -71 -33 -71 -50 0
-121 -31 -131 -57 -13 -35 -11 -38 9 -20 27 24 87 47 125 47 102 0 208 -68
222 -143 23 -123 -65 -216 -195 -204 -31 2 -75 14 -97 25 -45 23 -93 75 -93
100 0 11 -3 13 -11 5 -13 -13 -2 -126 12 -118 4 3 33 -9 64 -26 64 -36 161
-49 216 -30 39 14 53 2 69 -59 18 -69 -12 -148 -72 -193 -53 -39 -230 -28
-268 18 -19 23 -34 18 -47 -16 -9 -23 -9 -29 0 -26 7 2 23 -4 37 -13 57 -40
180 -61 235 -40 23 9 28 6 45 -23 24 -38 26 -112 6 -160 -37 -90 -162 -131
-280 -91 -89 30 -144 111 -129 188 l6 31 -48 -43 c-50 -44 -175 -112 -205
-112 -10 0 -36 -20 -58 -45 l-39 -45 -48 15 c-26 7 -60 12 -74 9 -14 -3 -46 2
-70 10 -116 42 -212 5 -293 -112 -16 -23 -48 -54 -70 -68 -79 -50 -131 -130
-127 -196 1 -19 -7 -48 -19 -68 -20 -32 -32 -120 -16 -120 11 0 51 24 224 135
96 62 193 123 216 136 22 13 85 52 140 87 207 132 326 202 335 196 6 -3 -5
-22 -24 -43 -45 -50 -93 -120 -102 -151 -4 -14 -16 -41 -27 -61 -16 -29 -18
-41 -9 -57 24 -46 -1 -133 -52 -181 -33 -30 -28 -63 22 -145 34 -56 36 -65 35
-138 0 -43 3 -78 8 -78 4 0 8 1 8 3 0 3 111 478 144 617 14 58 39 167 56 243
17 75 36 135 41 132 5 -4 9 -17 9 -31 0 -47 48 -112 105 -141 76 -40 215 -51
215 -17 0 7 9 18 20 24 16 9 20 8 20 -5 0 -24 17 -18 59 20 21 19 47 35 57 35
44 0 99 -24 138 -59 45 -42 81 -58 91 -41 3 6 27 21 53 34 84 43 132 109 132
181 0 19 5 37 10 40 19 11 50 84 50 115 0 16 -2 30 -4 30 -4 0 -134 -68 -383
-201 l-91 -49 10 34 c10 31 14 34 63 39 56 6 119 33 147 64 29 32 59 112 61
163 2 47 3 49 37 55 93 17 169 78 189 152 16 55 13 158 -4 199 -25 60 -132
189 -166 199 -17 6 -19 13 -13 54 19 142 -87 241 -255 241 -48 0 -76 -6 -101
-21z m199 -16 c94 -30 137 -93 129 -188 -2 -33 -6 -40 -23 -37 -11 1 -48 5
-82 9 -35 3 -63 10 -63 14 0 5 14 6 30 3 32 -7 41 11 18 34 -17 17 -48 15 -48
-3 0 -8 -7 -15 -15 -15 -8 0 -15 -9 -15 -20 0 -11 -4 -20 -9 -20 -5 0 -7 9 -4
20 4 15 0 20 -15 20 -24 0 -44 -23 -40 -46 4 -26 -22 -28 -75 -5 -51 22 -58
41 -45 120 11 60 28 84 80 110 52 25 108 27 177 4z m109 -264 c114 -38 173
-124 157 -228 -8 -56 -24 -88 -62 -124 -36 -34 -80 -47 -155 -47 -56 0 -161
31 -174 51 -3 5 6 23 19 39 14 16 28 43 32 60 4 20 13 30 25 30 20 0 43 23 33
33 -3 4 -14 7 -23 7 -12 0 -20 15 -29 52 -6 28 -23 66 -36 84 l-25 32 38 16
c52 21 128 20 200 -5z m212 -277 c0 -55 -19 -113 -48 -146 -27 -30 -93 -56
-144 -56 -59 0 -63 15 -6 24 94 15 162 93 174 198 8 72 24 59 24 -20z m-293
-193 c37 -14 58 -57 57 -118 -1 -97 -53 -160 -144 -180 -75 -16 -77 -15 -103
40 l-25 50 23 15 c13 8 28 28 35 43 8 19 21 31 40 34 17 4 31 15 35 28 9 27
-9 47 -28 30 -12 -9 -14 -3 -13 42 l0 54 51 -15 c27 -8 60 -18 72 -23z m-1396
-762 c-7 -7 -15 -6 -27 4 -15 12 -14 15 7 32 24 19 24 19 27 -3 2 -12 -1 -27
-7 -33z"/>
<path d="M3484 3106 c-9 -22 13 -69 29 -64 20 7 19 43 -2 62 -19 17 -21 18
-27 2z"/>
<path d="M3552 3088 c-15 -15 -16 -51 0 -46 6 2 16 12 22 21 14 22 -4 43 -22
25z"/>
<path d="M3455 3040 c-4 -7 -3 -16 2 -21 12 -12 45 0 40 15 -5 15 -34 19 -42
6z"/>
<path d="M3560 2807 c0 -33 23 -62 44 -54 31 12 11 77 -24 77 -14 0 -20 -7
-20 -23z"/>
<path d="M3638 2785 c-9 -19 -9 -28 0 -37 16 -16 42 8 42 38 0 32 -27 31 -42
-1z"/>
<path d="M3655 2730 c-15 -25 38 -54 68 -38 18 9 18 11 1 29 -18 20 -59 26
-69 9z"/>
<path d="M3555 2690 c-17 -19 -15 -50 4 -50 20 0 54 37 48 53 -9 23 -30 21
-52 -3z"/>
<path d="M3620 2697 c0 -27 12 -47 27 -47 21 0 13 54 -9 58 -11 2 -18 -3 -18
-11z"/>
<path d="M3510 2316 c0 -13 20 -26 41 -26 15 0 10 27 -7 34 -24 9 -34 7 -34
-8z"/>
<path d="M3475 2291 c-9 -15 13 -51 31 -51 11 0 14 8 12 27 -3 28 -30 43 -43
24z"/>
<path d="M1865 3170 c28 -12 37 -12 30 0 -3 6 -16 10 -28 9 -21 0 -21 -1 -2
-9z"/>
<path d="M2129 3078 c5 -13 13 -23 20 -22 6 1 23 2 39 3 26 2 26 3 -13 21 -52
24 -56 24 -46 -2z"/>
<path d="M2316 2975 c22 -39 28 -43 45 -35 10 6 19 12 19 14 0 1 -20 17 -44
34 l-45 32 25 -45z"/>
<path d="M2220 2844 c-56 -38 -140 -126 -146 -151 -4 -14 3 -47 17 -80 l23
-56 12 60 c14 70 61 168 105 218 36 41 35 42 -11 9z"/>
<path d="M3260 2845 c-10 -12 -9 -19 3 -38 14 -22 13 -23 -12 -22 -26 0 -38
-24 -15 -32 19 -6 64 37 64 62 0 32 -23 50 -40 30z"/>
<path d="M3326 2824 c-9 -9 -15 -21 -13 -27 6 -20 26 -18 37 3 16 30 -1 47
-24 24z"/>
<path d="M3334 2768 c-7 -12 21 -38 42 -38 22 0 28 23 9 37 -23 16 -41 17 -51
1z"/>
<path d="M3304 2746 c-6 -16 11 -46 27 -46 15 0 10 37 -6 50 -12 10 -16 9 -21
-4z"/>
<path d="M3252 2738 c-18 -18 -14 -38 7 -38 17 0 31 18 31 41 0 13 -24 11 -38
-3z"/>
<path d="M1133 2647 c-12 -15 -24 -45 -28 -66 -6 -38 11 -129 22 -117 3 3 33
-19 66 -49 33 -30 62 -53 64 -51 2 2 -3 32 -12 66 -9 34 -14 69 -11 76 3 7 -8
23 -24 34 -17 12 -30 29 -31 38 0 9 -6 35 -12 57 l-12 39 -22 -27z"/>
<path d="M3206 2534 c-7 -17 18 -64 33 -64 18 0 21 33 6 56 -18 28 -30 30 -39
8z"/>
<path d="M3282 2518 c-16 -16 -15 -48 2 -48 14 0 26 21 26 46 0 17 -12 18 -28
2z"/>
<path d="M1986 2457 c-5 -18 3 -30 41 -64 42 -37 90 -59 102 -47 6 6 -54 67
-100 105 l-37 29 -6 -23z"/>
<path d="M3177 2474 c-17 -18 -6 -35 21 -32 16 2 27 9 27 18 0 16 -36 26 -48
14z"/>
<path d="M3293 2454 c-6 -17 12 -34 39 -34 25 0 31 16 12 34 -20 20 -43 20
-51 0z"/>
<path d="M3200 2420 c-21 -21 -19 -40 4 -40 18 0 49 37 41 49 -9 16 -23 13
-45 -9z"/>
<path d="M3260 2416 c0 -29 19 -44 30 -25 9 14 -5 49 -20 49 -6 0 -10 -11 -10
-24z"/>
<path d="M2151 2208 c-11 -18 -10 -23 6 -38 10 -9 45 -42 78 -73 l60 -56 25
20 25 19 -24 19 c-13 10 -32 16 -43 13 -24 -6 -56 23 -66 61 -4 17 -17 36 -28
43 -17 12 -21 11 -33 -8z"/>
<path d="M3177 2180 c-3 -10 1 -26 7 -35 11 -15 13 -15 25 -2 9 12 10 21 1 36
-14 26 -26 27 -33 1z"/>
<path d="M3234 2164 c-12 -17 -14 -28 -7 -35 21 -21 73 26 57 52 -10 17 -33 9
-50 -17z"/>
<path d="M3121 2141 c-21 -14 -5 -41 24 -41 29 0 45 27 24 41 -8 5 -18 9 -24
9 -5 0 -16 -4 -24 -9z"/>
<path d="M3245 2110 c-10 -16 4 -30 31 -30 26 0 31 9 12 28 -15 15 -35 16 -43
2z"/>
<path d="M3163 2085 c-3 -9 -3 -18 0 -22 10 -10 37 6 37 22 0 20 -29 20 -37 0z"/>
<path d="M3210 2066 c0 -30 26 -54 42 -38 9 9 9 18 0 37 -15 32 -42 33 -42 1z"/>
<path d="M3136 1704 c-4 -10 -2 -42 5 -73 13 -62 7 -127 -16 -170 l-15 -30 53
-6 c41 -5 65 -2 112 15 40 15 87 23 140 25 94 2 144 22 183 72 15 19 48 45 74
58 40 21 98 80 87 89 -2 2 -130 8 -284 15 -154 7 -292 14 -306 17 -19 4 -28 0
-33 -12z m80 -46 c8 -27 -22 -54 -43 -37 -14 12 -18 41 -6 52 14 15 42 6 49
-15z"/>
</g>
</svg>
