<?xml version="1.0" standalone="no"?>
<!DOCTYPE svg PUBLIC "-//W3C//DTD SVG 20010904//EN"
 "http://www.w3.org/TR/2001/REC-SVG-20010904/DTD/svg10.dtd">
<svg version="1.0" xmlns="http://www.w3.org/2000/svg"
 width="500.000000pt" height="500.000000pt" viewBox="0 0 500.000000 500.000000"
 preserveAspectRatio="xMidYMid meet">

<g transform="translate(0.000000,500.000000) scale(0.100000,-0.100000)"
fill="#000000" stroke="none">
<path d="M2593 4215 c-196 -53 -394 -264 -458 -488 -14 -47 -20 -57 -34 -52
-39 12 -49 -5 -81 -138 -18 -73 -37 -136 -42 -142 -5 -5 -44 -10 -86 -11 -191
-1 -402 -35 -512 -82 -25 -11 -58 -23 -73 -26 -26 -6 -29 -3 -49 40 -15 35
-19 58 -14 91 3 26 2 43 -4 43 -6 0 -31 -19 -55 -41 -49 -45 -63 -81 -109
-280 -18 -77 -36 -124 -69 -182 -81 -140 -137 -356 -137 -527 0 -237 78 -496
211 -700 59 -90 209 -238 299 -295 49 -31 118 -92 200 -176 126 -129 182 -168
242 -169 39 0 43 15 13 54 -14 19 -28 50 -32 69 -8 51 25 72 124 80 171 14
315 83 464 225 l47 44 16 -23 c9 -13 60 -68 113 -121 126 -128 153 -130 202
-15 30 69 26 106 -21 215 -54 126 -56 181 -9 337 28 97 33 129 38 265 4 121 2
178 -11 255 -45 264 -157 477 -368 700 -82 87 -88 97 -107 166 -11 41 -25 103
-31 139 -13 73 -47 139 -86 168 -26 19 -27 20 -15 68 7 27 23 72 36 101 l24
52 33 -11 c71 -24 208 -140 274 -232 l21 -28 384 127 c211 70 388 130 392 135
9 8 -174 178 -268 248 -147 110 -323 154 -462 117z m-588 -1544 c104 -48 149
-119 143 -221 -3 -57 -10 -77 -47 -141 -180 -306 -245 -415 -252 -423 -7 -8
-444 234 -507 282 -75 57 -97 168 -53 267 28 63 63 100 122 130 52 27 101 33
177 21 51 -8 56 -7 85 21 78 72 120 91 212 92 46 1 74 -5 120 -28z"/>
<path d="M3100 4103 c41 -33 117 -101 169 -152 l95 -92 17 22 c22 30 17 41
-73 135 -77 80 -158 128 -238 140 l-45 7 75 -60z"/>
<path d="M3540 3640 c0 -20 77 -132 84 -122 7 12 -60 132 -74 132 -6 0 -10 -5
-10 -10z"/>
<path d="M3405 3574 c-155 -50 -471 -150 -592 -187 l-101 -31 36 -68 c21 -37
42 -66 47 -64 6 2 183 61 395 131 212 70 389 131 394 135 8 8 -52 120 -64 119
-3 0 -54 -16 -115 -35z"/>
<path d="M3730 3231 c0 -25 54 -178 68 -191 13 -13 14 -13 8 4 -4 11 -19 59
-33 108 -15 48 -30 88 -35 88 -4 0 -8 -4 -8 -9z"/>
<path d="M3665 3215 c-46 -15 -338 -108 -591 -187 l-170 -53 22 -50 21 -50
-28 -17 c-24 -15 -29 -25 -29 -55 0 -43 26 -101 52 -117 12 -7 29 -7 58 0 22
6 40 10 40 9 0 -2 16 -86 35 -187 59 -315 65 -363 65 -548 0 -297 -24 -430
-112 -630 -33 -74 -64 -140 -69 -146 -11 -14 99 -66 187 -88 118 -30 265 -16
367 35 161 81 294 254 356 464 42 143 53 241 57 475 3 235 -4 334 -36 537 -27
167 -37 188 -136 282 -81 76 -84 81 -84 124 0 54 17 72 64 64 l34 -5 -26 79
c-15 43 -29 79 -32 78 -3 -1 -23 -7 -45 -14z m-232 -269 c9 -63 36 -126 55
-126 48 0 72 -82 30 -100 -46 -19 -150 -41 -169 -35 -21 7 -35 46 -25 71 4 9
-3 41 -14 71 -11 29 -20 71 -20 92 0 37 1 38 53 53 81 24 84 24 90 -26z m135
-372 c22 -15 29 -48 14 -71 -4 -7 -45 -22 -91 -35 l-84 -22 -18 23 c-22 27
-24 54 -6 69 10 9 131 48 157 51 3 1 16 -6 28 -15z m26 -216 c34 -48 11 -73
-84 -98 -91 -24 -85 -24 -104 -4 -19 18 -21 70 -5 80 15 9 138 42 161 43 9 1
24 -9 32 -21z m20 -194 c22 -21 21 -71 -1 -82 -10 -5 -51 -17 -91 -27 -80 -21
-94 -16 -107 36 -8 34 9 47 92 69 86 23 88 23 107 4z m2 -209 c28 -43 8 -69
-70 -89 -107 -27 -136 -19 -136 35 0 34 8 39 85 61 85 23 102 22 121 -7z m-28
-187 c16 -16 15 -53 0 -66 -19 -15 -163 -46 -182 -39 -19 7 -22 62 -5 73 14 8
137 42 160 43 8 1 20 -4 27 -11z m-20 -180 c18 -18 15 -46 -6 -57 -10 -5 -53
-19 -97 -30 -88 -22 -108 -17 -103 28 3 23 11 28 83 48 95 26 107 27 123 11z
m-50 -174 c4 -30 -12 -40 -107 -64 -91 -23 -111 -21 -111 9 0 26 10 31 105 58
93 25 109 25 113 -3z m-90 -117 c6 -30 -14 -43 -103 -67 -85 -23 -115 -22
-115 3 0 24 29 41 109 63 88 25 105 25 109 1z"/>
</g>
</svg>
